<svg width="48" height="48" viewBox="0 0 48 48" fill="none" xmlns="http://www.w3.org/2000/svg">
  <path d="M8 32C8 32 12 28 16 28C20 28 24 32 28 32C32 32 36 28 40 28" stroke="#CB9275" stroke-width="2" stroke-linecap="round"/>
  <path d="M8 38C8 38 12 34 16 34C20 34 24 38 28 38C32 38 36 34 40 34" stroke="#CB9275" stroke-width="2" stroke-linecap="round"/>
  <circle cx="16" cy="15" r="3" stroke="#CB9275" stroke-width="2"/>
  <path d="M24 12C24 12 28 8 32 8C36 8 40 12 40 16" stroke="#CB9275" stroke-width="2" stroke-linecap="round"/>
  <path d="M18 18L24 24" stroke="#CB9275" stroke-width="2" stroke-linecap="round"/>
  <circle cx="35" cy="18" r="2.5" stroke="#CB9275" stroke-width="2"/>
</svg>
